<mxfile host="app.diagrams.net" modified="2020-10-27T16:07:54.483Z" agent="5.0 (Macintosh; Intel Mac OS X 10_15_4) AppleWebKit/537.36 (KHTML, like Gecko) Chrome/86.0.4240.111 Safari/537.36" etag="dEM7VzN-XWhbQ9HXlh5E" version="13.8.3" type="github">
  <diagram id="R2lEEEUBdFMjLlhIrx00" name="Page-1">
    <mxGraphModel dx="1720" dy="1182" grid="1" gridSize="10" guides="1" tooltips="1" connect="1" arrows="1" fold="1" page="1" pageScale="1" pageWidth="1400" pageHeight="1400" math="0" shadow="0" extFonts="Permanent Marker^https://fonts.googleapis.com/css?family=Permanent+Marker">
      <root>
        <mxCell id="0" />
        <mxCell id="1" parent="0" />
        <mxCell id="iLK9U__o5Sq51809CfXk-116" style="edgeStyle=orthogonalEdgeStyle;rounded=0;orthogonalLoop=1;jettySize=auto;html=1;exitX=0.25;exitY=0;exitDx=0;exitDy=0;entryX=0.585;entryY=1.027;entryDx=0;entryDy=0;entryPerimeter=0;startArrow=none;startFill=0;endArrow=classic;endFill=1;fontSize=11;" edge="1" parent="1">
          <mxGeometry relative="1" as="geometry">
            <mxPoint x="744.25" y="718" as="sourcePoint" />
            <mxPoint x="740.05" y="602.2950000000001" as="targetPoint" />
            <Array as="points">
              <mxPoint x="744" y="720" />
              <mxPoint x="740" y="720" />
            </Array>
          </mxGeometry>
        </mxCell>
        <mxCell id="iLK9U__o5Sq51809CfXk-38" value="PermanentArtObjects" style="swimlane;childLayout=stackLayout;horizontal=1;startSize=30;horizontalStack=0;rounded=1;fontSize=11;fontStyle=0;strokeWidth=2;resizeParent=0;resizeLast=1;shadow=0;dashed=0;align=center;" vertex="1" parent="1">
          <mxGeometry x="695.5" y="718" width="115" height="90" as="geometry" />
        </mxCell>
        <mxCell id="iLK9U__o5Sq51809CfXk-39" value="+Attribute1&#xa;+Attribute2&#xa;+Attribute3" style="align=left;strokeColor=none;fillColor=none;spacingLeft=4;fontSize=12;verticalAlign=top;resizable=0;rotatable=0;part=1;" vertex="1" parent="iLK9U__o5Sq51809CfXk-38">
          <mxGeometry y="30" width="115" height="60" as="geometry" />
        </mxCell>
        <mxCell id="iLK9U__o5Sq51809CfXk-45" value="BorrowedArtObjects" style="swimlane;childLayout=stackLayout;horizontal=1;startSize=30;horizontalStack=0;rounded=1;fontSize=11;fontStyle=0;strokeWidth=2;resizeParent=0;resizeLast=1;shadow=0;dashed=0;align=center;" vertex="1" parent="1">
          <mxGeometry x="640" y="270" width="105" height="90" as="geometry" />
        </mxCell>
        <mxCell id="iLK9U__o5Sq51809CfXk-46" value="year&#xa;" style="align=left;strokeColor=none;fillColor=none;spacingLeft=4;fontSize=11;verticalAlign=top;resizable=0;rotatable=0;part=1;" vertex="1" parent="iLK9U__o5Sq51809CfXk-45">
          <mxGeometry y="30" width="105" height="60" as="geometry" />
        </mxCell>
        <mxCell id="iLK9U__o5Sq51809CfXk-47" value="RegularExhibitions" style="swimlane;childLayout=stackLayout;horizontal=1;startSize=30;horizontalStack=0;rounded=1;fontSize=13;fontStyle=0;strokeWidth=2;resizeParent=0;resizeLast=1;shadow=0;dashed=0;align=center;" vertex="1" parent="1">
          <mxGeometry x="300" y="270" width="130" height="90" as="geometry" />
        </mxCell>
        <mxCell id="iLK9U__o5Sq51809CfXk-48" value="+Attribute1&#xa;+Attribute2&#xa;+Attribute3" style="align=left;strokeColor=none;fillColor=none;spacingLeft=4;fontSize=12;verticalAlign=top;resizable=0;rotatable=0;part=1;" vertex="1" parent="iLK9U__o5Sq51809CfXk-47">
          <mxGeometry y="30" width="130" height="60" as="geometry" />
        </mxCell>
        <mxCell id="iLK9U__o5Sq51809CfXk-121" style="edgeStyle=orthogonalEdgeStyle;rounded=0;orthogonalLoop=1;jettySize=auto;html=1;exitX=0.5;exitY=0;exitDx=0;exitDy=0;entryX=0.485;entryY=1.022;entryDx=0;entryDy=0;entryPerimeter=0;startArrow=none;startFill=0;endArrow=classic;endFill=1;fontSize=11;fontColor=#000000;" edge="1" parent="1" target="iLK9U__o5Sq51809CfXk-118">
          <mxGeometry relative="1" as="geometry">
            <mxPoint x="475" y="659" as="sourcePoint" />
            <mxPoint x="474.0999999999999" y="600.3" as="targetPoint" />
            <Array as="points">
              <mxPoint x="473" y="659" />
            </Array>
          </mxGeometry>
        </mxCell>
        <mxCell id="iLK9U__o5Sq51809CfXk-49" value="FaturedExhibitions" style="swimlane;childLayout=stackLayout;horizontal=1;startSize=30;horizontalStack=0;rounded=1;fontSize=13;fontStyle=0;strokeWidth=2;resizeParent=0;resizeLast=1;shadow=0;dashed=0;align=center;" vertex="1" parent="1">
          <mxGeometry x="450" y="659" width="130" height="86" as="geometry" />
        </mxCell>
        <mxCell id="iLK9U__o5Sq51809CfXk-50" value="+Attribute1&#xa;+Attribute2&#xa;+Attribute3" style="align=left;strokeColor=none;fillColor=none;spacingLeft=4;fontSize=12;verticalAlign=top;resizable=0;rotatable=0;part=1;" vertex="1" parent="iLK9U__o5Sq51809CfXk-49">
          <mxGeometry y="30" width="130" height="56" as="geometry" />
        </mxCell>
        <mxCell id="iLK9U__o5Sq51809CfXk-53" value="Museum" style="swimlane;childLayout=stackLayout;horizontal=1;startSize=30;horizontalStack=0;rounded=1;fontSize=13;fontStyle=0;strokeWidth=2;resizeParent=0;resizeLast=1;shadow=0;dashed=0;align=center;" vertex="1" parent="1">
          <mxGeometry x="870" y="520" width="110" height="130" as="geometry" />
        </mxCell>
        <mxCell id="iLK9U__o5Sq51809CfXk-54" value="name {PK}&#xa;description&#xa;address&#xa;     street&#xa;     city&#xa;     postcode&#xa;phone&#xa;name_contact" style="align=left;strokeColor=none;fillColor=none;spacingLeft=4;fontSize=9;verticalAlign=top;resizable=0;rotatable=0;part=1;" vertex="1" parent="iLK9U__o5Sq51809CfXk-53">
          <mxGeometry y="30" width="110" height="100" as="geometry" />
        </mxCell>
        <mxCell id="iLK9U__o5Sq51809CfXk-51" value="Artist/Creator" style="swimlane;childLayout=stackLayout;horizontal=1;startSize=30;horizontalStack=0;rounded=1;fontSize=13;fontStyle=0;strokeWidth=2;resizeParent=0;resizeLast=1;shadow=0;dashed=0;align=center;" vertex="1" parent="1">
          <mxGeometry x="644" y="485" width="130" height="115" as="geometry">
            <mxRectangle x="110" y="240" width="110" height="30" as="alternateBounds" />
          </mxGeometry>
        </mxCell>
        <mxCell id="iLK9U__o5Sq51809CfXk-52" value="name&#xa;date_born&#xa;date_died&#xa;country_of_origin&#xa;epoch&#xa;main_style" style="align=left;strokeColor=none;fillColor=none;spacingLeft=4;fontSize=10;verticalAlign=top;resizable=0;rotatable=0;part=1;" vertex="1" parent="iLK9U__o5Sq51809CfXk-51">
          <mxGeometry y="30" width="130" height="85" as="geometry" />
        </mxCell>
        <mxCell id="iLK9U__o5Sq51809CfXk-56" style="edgeStyle=orthogonalEdgeStyle;rounded=0;orthogonalLoop=1;jettySize=auto;html=1;fontSize=13;endArrow=none;endFill=0;startArrow=classic;startFill=1;entryX=0;entryY=0.5;entryDx=0;entryDy=0;exitX=1;exitY=0.25;exitDx=0;exitDy=0;" edge="1" parent="1" source="iLK9U__o5Sq51809CfXk-48" target="iLK9U__o5Sq51809CfXk-45">
          <mxGeometry relative="1" as="geometry">
            <mxPoint x="510" y="310" as="sourcePoint" />
            <mxPoint x="634" y="359" as="targetPoint" />
            <Array as="points">
              <mxPoint x="590" y="315" />
              <mxPoint x="590" y="315" />
            </Array>
          </mxGeometry>
        </mxCell>
        <mxCell id="iLK9U__o5Sq51809CfXk-57" value="&lt;font style=&quot;font-size: 10px&quot;&gt;Displayed_in&lt;/font&gt;" style="text;html=1;strokeColor=none;fillColor=none;align=center;verticalAlign=middle;whiteSpace=wrap;rounded=0;fontSize=13;" vertex="1" parent="1">
          <mxGeometry x="486" y="290" width="80" height="20" as="geometry" />
        </mxCell>
        <mxCell id="iLK9U__o5Sq51809CfXk-58" style="edgeStyle=orthogonalEdgeStyle;rounded=0;orthogonalLoop=1;jettySize=auto;html=1;exitX=0;exitY=0.333;exitDx=0;exitDy=0;entryX=0.895;entryY=1.021;entryDx=0;entryDy=0;startArrow=none;startFill=0;endArrow=classic;endFill=1;fontSize=13;exitPerimeter=0;entryPerimeter=0;" edge="1" parent="1" source="iLK9U__o5Sq51809CfXk-39" target="iLK9U__o5Sq51809CfXk-50">
          <mxGeometry relative="1" as="geometry">
            <mxPoint x="695" y="758" as="sourcePoint" />
            <mxPoint x="580" y="718" as="targetPoint" />
            <Array as="points" />
          </mxGeometry>
        </mxCell>
        <mxCell id="iLK9U__o5Sq51809CfXk-59" value="&lt;font style=&quot;font-size: 10px&quot;&gt;Displayed_in&lt;/font&gt;" style="text;html=1;strokeColor=none;fillColor=none;align=center;verticalAlign=middle;whiteSpace=wrap;rounded=0;fontSize=13;" vertex="1" parent="1">
          <mxGeometry x="590" y="745" width="80" height="20" as="geometry" />
        </mxCell>
        <mxCell id="iLK9U__o5Sq51809CfXk-60" style="edgeStyle=orthogonalEdgeStyle;rounded=0;orthogonalLoop=1;jettySize=auto;html=1;startArrow=classic;startFill=1;endArrow=none;endFill=0;fontSize=13;" edge="1" parent="1">
          <mxGeometry relative="1" as="geometry">
            <mxPoint x="707" y="480" as="sourcePoint" />
            <mxPoint x="707" y="360" as="targetPoint" />
            <Array as="points">
              <mxPoint x="707" y="390" />
              <mxPoint x="707" y="390" />
            </Array>
          </mxGeometry>
        </mxCell>
        <mxCell id="iLK9U__o5Sq51809CfXk-61" value="&lt;font style=&quot;font-size: 10px&quot;&gt;Created_by&lt;/font&gt;" style="text;html=1;strokeColor=none;fillColor=none;align=center;verticalAlign=middle;whiteSpace=wrap;rounded=0;fontSize=13;rotation=0;" vertex="1" parent="1">
          <mxGeometry x="705" y="426" width="69" as="geometry" />
        </mxCell>
        <mxCell id="iLK9U__o5Sq51809CfXk-64" value="&lt;font style=&quot;font-size: 10px&quot;&gt;Created_by&lt;/font&gt;" style="text;html=1;strokeColor=none;fillColor=none;align=center;verticalAlign=middle;whiteSpace=wrap;rounded=0;fontSize=13;" vertex="1" parent="1">
          <mxGeometry x="730.5" y="650" width="80" height="20" as="geometry" />
        </mxCell>
        <mxCell id="iLK9U__o5Sq51809CfXk-66" style="edgeStyle=orthogonalEdgeStyle;rounded=0;orthogonalLoop=1;jettySize=auto;html=1;startArrow=classic;startFill=1;endArrow=none;endFill=0;fontSize=13;entryX=0.443;entryY=-0.01;entryDx=0;entryDy=0;entryPerimeter=0;exitX=1;exitY=0.75;exitDx=0;exitDy=0;" edge="1" parent="1" source="iLK9U__o5Sq51809CfXk-46" target="iLK9U__o5Sq51809CfXk-53">
          <mxGeometry relative="1" as="geometry">
            <mxPoint x="741" y="415" as="sourcePoint" />
            <mxPoint x="919" y="535" as="targetPoint" />
            <Array as="points">
              <mxPoint x="919" y="345" />
            </Array>
          </mxGeometry>
        </mxCell>
        <mxCell id="iLK9U__o5Sq51809CfXk-67" value="&lt;span style=&quot;font-size: 10px&quot;&gt;Owns&lt;/span&gt;" style="text;html=1;strokeColor=none;fillColor=none;align=center;verticalAlign=middle;whiteSpace=wrap;rounded=0;fontSize=13;" vertex="1" parent="1">
          <mxGeometry x="810" y="350" width="80" height="20" as="geometry" />
        </mxCell>
        <mxCell id="iLK9U__o5Sq51809CfXk-68" style="edgeStyle=orthogonalEdgeStyle;rounded=0;orthogonalLoop=1;jettySize=auto;html=1;exitX=1;exitY=0.25;exitDx=0;exitDy=0;startArrow=classic;startFill=1;endArrow=none;endFill=0;fontSize=13;" edge="1" parent="1" source="iLK9U__o5Sq51809CfXk-39">
          <mxGeometry relative="1" as="geometry">
            <mxPoint x="925" y="650" as="targetPoint" />
            <Array as="points">
              <mxPoint x="925" y="763" />
            </Array>
          </mxGeometry>
        </mxCell>
        <mxCell id="iLK9U__o5Sq51809CfXk-69" value="&lt;span style=&quot;font-size: 10px&quot;&gt;Owns&lt;/span&gt;" style="text;html=1;strokeColor=none;fillColor=none;align=center;verticalAlign=middle;whiteSpace=wrap;rounded=0;fontSize=13;" vertex="1" parent="1">
          <mxGeometry x="850" y="738" width="80" height="20" as="geometry" />
        </mxCell>
        <mxCell id="iLK9U__o5Sq51809CfXk-77" style="edgeStyle=orthogonalEdgeStyle;rounded=0;orthogonalLoop=1;jettySize=auto;html=1;exitX=1;exitY=0;exitDx=0;exitDy=0;startArrow=none;startFill=0;endArrow=classic;endFill=1;fontSize=13;" edge="1" parent="1" source="iLK9U__o5Sq51809CfXk-46">
          <mxGeometry relative="1" as="geometry">
            <mxPoint x="939" y="520" as="targetPoint" />
            <Array as="points">
              <mxPoint x="745" y="310" />
              <mxPoint x="939" y="310" />
            </Array>
          </mxGeometry>
        </mxCell>
        <mxCell id="iLK9U__o5Sq51809CfXk-78" value="&lt;span style=&quot;font-size: 10px&quot;&gt;Borrowed_from&lt;/span&gt;" style="text;html=1;strokeColor=none;fillColor=none;align=center;verticalAlign=middle;whiteSpace=wrap;rounded=0;fontSize=13;" vertex="1" parent="1">
          <mxGeometry x="810" y="290" width="80" height="20" as="geometry" />
        </mxCell>
        <mxCell id="iLK9U__o5Sq51809CfXk-86" value="Mimics" style="swimlane;childLayout=stackLayout;horizontal=1;startSize=30;horizontalStack=0;rounded=1;fontSize=13;fontStyle=0;strokeWidth=2;resizeParent=0;resizeLast=1;shadow=0;dashed=0;align=center;" vertex="1" parent="1">
          <mxGeometry x="160" y="652" width="130" height="86" as="geometry" />
        </mxCell>
        <mxCell id="iLK9U__o5Sq51809CfXk-87" value="+Attribute1&#xa;+Attribute2&#xa;+Attribute3" style="align=left;strokeColor=none;fillColor=none;spacingLeft=4;fontSize=12;verticalAlign=top;resizable=0;rotatable=0;part=1;" vertex="1" parent="iLK9U__o5Sq51809CfXk-86">
          <mxGeometry y="30" width="130" height="56" as="geometry" />
        </mxCell>
        <mxCell id="iLK9U__o5Sq51809CfXk-88" style="edgeStyle=orthogonalEdgeStyle;rounded=0;orthogonalLoop=1;jettySize=auto;html=1;exitX=0;exitY=0;exitDx=0;exitDy=0;entryX=1;entryY=0.25;entryDx=0;entryDy=0;startArrow=none;startFill=0;endArrow=classic;endFill=1;fontSize=11;" edge="1" parent="1" source="iLK9U__o5Sq51809CfXk-50" target="iLK9U__o5Sq51809CfXk-87">
          <mxGeometry relative="1" as="geometry">
            <Array as="points">
              <mxPoint x="450" y="696" />
            </Array>
          </mxGeometry>
        </mxCell>
        <mxCell id="iLK9U__o5Sq51809CfXk-89" value="&lt;font style=&quot;font-size: 10px&quot;&gt;Sells&lt;/font&gt;" style="text;html=1;strokeColor=none;fillColor=none;align=center;verticalAlign=middle;whiteSpace=wrap;rounded=0;fontSize=13;" vertex="1" parent="1">
          <mxGeometry x="325" y="677" width="80" height="20" as="geometry" />
        </mxCell>
        <mxCell id="iLK9U__o5Sq51809CfXk-90" value="Invitations" style="swimlane;childLayout=stackLayout;horizontal=1;startSize=30;horizontalStack=0;rounded=1;fontSize=13;fontStyle=0;strokeWidth=2;resizeParent=0;resizeLast=1;shadow=0;dashed=0;align=center;" vertex="1" parent="1">
          <mxGeometry x="450" y="820" width="130" height="86" as="geometry" />
        </mxCell>
        <mxCell id="iLK9U__o5Sq51809CfXk-91" value="+Attribute1&#xa;+Attribute2&#xa;+Attribute3" style="align=left;strokeColor=none;fillColor=none;spacingLeft=4;fontSize=12;verticalAlign=top;resizable=0;rotatable=0;part=1;" vertex="1" parent="iLK9U__o5Sq51809CfXk-90">
          <mxGeometry y="30" width="130" height="56" as="geometry" />
        </mxCell>
        <mxCell id="iLK9U__o5Sq51809CfXk-92" style="edgeStyle=orthogonalEdgeStyle;rounded=0;orthogonalLoop=1;jettySize=auto;html=1;exitX=0.5;exitY=1;exitDx=0;exitDy=0;entryX=0.5;entryY=0;entryDx=0;entryDy=0;startArrow=none;startFill=0;endArrow=classic;endFill=1;fontSize=11;" edge="1" parent="1" source="iLK9U__o5Sq51809CfXk-50" target="iLK9U__o5Sq51809CfXk-90">
          <mxGeometry relative="1" as="geometry" />
        </mxCell>
        <mxCell id="iLK9U__o5Sq51809CfXk-102" style="edgeStyle=orthogonalEdgeStyle;rounded=0;orthogonalLoop=1;jettySize=auto;html=1;exitX=1;exitY=0.5;exitDx=0;exitDy=0;startArrow=none;startFill=0;endArrow=classic;endFill=1;fontSize=11;" edge="1" parent="1" source="iLK9U__o5Sq51809CfXk-93">
          <mxGeometry relative="1" as="geometry">
            <mxPoint x="720" y="1035" as="targetPoint" />
            <Array as="points">
              <mxPoint x="580" y="1035" />
            </Array>
          </mxGeometry>
        </mxCell>
        <mxCell id="iLK9U__o5Sq51809CfXk-110" style="edgeStyle=orthogonalEdgeStyle;rounded=0;orthogonalLoop=1;jettySize=auto;html=1;exitX=0;exitY=0.5;exitDx=0;exitDy=0;entryX=1;entryY=0.5;entryDx=0;entryDy=0;startArrow=none;startFill=0;endArrow=classic;endFill=1;fontSize=11;" edge="1" parent="1" source="iLK9U__o5Sq51809CfXk-93" target="iLK9U__o5Sq51809CfXk-107">
          <mxGeometry relative="1" as="geometry">
            <Array as="points">
              <mxPoint x="450" y="1030" />
            </Array>
          </mxGeometry>
        </mxCell>
        <mxCell id="iLK9U__o5Sq51809CfXk-93" value="LoyalVisitors" style="swimlane;childLayout=stackLayout;horizontal=1;startSize=30;horizontalStack=0;rounded=1;fontSize=13;fontStyle=0;strokeWidth=2;resizeParent=0;resizeLast=1;shadow=0;dashed=0;align=center;" vertex="1" parent="1">
          <mxGeometry x="450" y="985" width="130" height="86" as="geometry" />
        </mxCell>
        <mxCell id="iLK9U__o5Sq51809CfXk-94" value="+Attribute1&#xa;+Attribute2&#xa;+Attribute3" style="align=left;strokeColor=none;fillColor=none;spacingLeft=4;fontSize=12;verticalAlign=top;resizable=0;rotatable=0;part=1;" vertex="1" parent="iLK9U__o5Sq51809CfXk-93">
          <mxGeometry y="30" width="130" height="56" as="geometry" />
        </mxCell>
        <mxCell id="iLK9U__o5Sq51809CfXk-95" style="edgeStyle=orthogonalEdgeStyle;rounded=0;orthogonalLoop=1;jettySize=auto;html=1;exitX=0.5;exitY=1;exitDx=0;exitDy=0;entryX=0.5;entryY=0;entryDx=0;entryDy=0;startArrow=none;startFill=0;endArrow=classic;endFill=1;fontSize=11;" edge="1" parent="1" source="iLK9U__o5Sq51809CfXk-91" target="iLK9U__o5Sq51809CfXk-93">
          <mxGeometry relative="1" as="geometry" />
        </mxCell>
        <mxCell id="iLK9U__o5Sq51809CfXk-96" value="&lt;font style=&quot;font-size: 10px&quot;&gt;Sends&lt;/font&gt;" style="text;html=1;strokeColor=none;fillColor=none;align=center;verticalAlign=middle;whiteSpace=wrap;rounded=0;fontSize=13;" vertex="1" parent="1">
          <mxGeometry x="450" y="770" width="80" height="20" as="geometry" />
        </mxCell>
        <mxCell id="iLK9U__o5Sq51809CfXk-97" value="&lt;font style=&quot;font-size: 10px&quot;&gt;To&lt;/font&gt;" style="text;html=1;strokeColor=none;fillColor=none;align=center;verticalAlign=middle;whiteSpace=wrap;rounded=0;fontSize=13;" vertex="1" parent="1">
          <mxGeometry x="486" y="935" width="80" height="20" as="geometry" />
        </mxCell>
        <mxCell id="iLK9U__o5Sq51809CfXk-99" value="Preferences" style="swimlane;childLayout=stackLayout;horizontal=1;startSize=30;horizontalStack=0;rounded=1;fontSize=13;fontStyle=0;strokeWidth=2;resizeParent=0;resizeLast=1;shadow=0;dashed=0;align=center;" vertex="1" parent="1">
          <mxGeometry x="720" y="985" width="130" height="86" as="geometry" />
        </mxCell>
        <mxCell id="iLK9U__o5Sq51809CfXk-103" value="&lt;font style=&quot;font-size: 10px&quot;&gt;Express&lt;/font&gt;" style="text;html=1;strokeColor=none;fillColor=none;align=center;verticalAlign=middle;whiteSpace=wrap;rounded=0;fontSize=13;" vertex="1" parent="1">
          <mxGeometry x="611" y="1014" width="80" height="20" as="geometry" />
        </mxCell>
        <mxCell id="iLK9U__o5Sq51809CfXk-107" value="LoyaltyCards" style="swimlane;childLayout=stackLayout;horizontal=1;startSize=30;horizontalStack=0;rounded=1;fontSize=13;fontStyle=0;strokeWidth=2;resizeParent=0;resizeLast=1;shadow=0;dashed=0;align=center;" vertex="1" parent="1">
          <mxGeometry x="160" y="985" width="130" height="90" as="geometry" />
        </mxCell>
        <mxCell id="iLK9U__o5Sq51809CfXk-113" value="&lt;span style=&quot;font-size: 12px&quot;&gt;&amp;nbsp;+Attribute1&lt;/span&gt;&lt;br style=&quot;padding: 0px ; margin: 0px ; font-size: 12px&quot;&gt;&lt;span style=&quot;font-size: 12px&quot;&gt;&amp;nbsp;+Attribute2&lt;/span&gt;&lt;br style=&quot;padding: 0px ; margin: 0px ; font-size: 12px&quot;&gt;&lt;span style=&quot;font-size: 12px&quot;&gt;&amp;nbsp;+Attribute3&lt;/span&gt;" style="text;html=1;align=left;verticalAlign=middle;resizable=0;points=[];autosize=1;fontSize=11;perimeterSpacing=0;" vertex="1" parent="iLK9U__o5Sq51809CfXk-107">
          <mxGeometry y="30" width="130" height="60" as="geometry" />
        </mxCell>
        <mxCell id="iLK9U__o5Sq51809CfXk-111" value="&lt;font style=&quot;font-size: 10px&quot;&gt;Have&lt;/font&gt;" style="text;html=1;strokeColor=none;fillColor=none;align=center;verticalAlign=middle;whiteSpace=wrap;rounded=0;fontSize=13;" vertex="1" parent="1">
          <mxGeometry x="330" y="1009" width="80" height="20" as="geometry" />
        </mxCell>
        <mxCell id="iLK9U__o5Sq51809CfXk-136" style="edgeStyle=orthogonalEdgeStyle;rounded=0;orthogonalLoop=1;jettySize=auto;html=1;exitX=0.25;exitY=0;exitDx=0;exitDy=0;entryX=0.706;entryY=1.051;entryDx=0;entryDy=0;entryPerimeter=0;startArrow=classic;startFill=1;endArrow=none;endFill=0;fontSize=10;fontColor=#000000;" edge="1" parent="1" source="iLK9U__o5Sq51809CfXk-117" target="iLK9U__o5Sq51809CfXk-48">
          <mxGeometry relative="1" as="geometry">
            <Array as="points">
              <mxPoint x="443" y="423" />
              <mxPoint x="392" y="423" />
            </Array>
          </mxGeometry>
        </mxCell>
        <mxCell id="iLK9U__o5Sq51809CfXk-117" value="Staff" style="swimlane;childLayout=stackLayout;horizontal=1;startSize=30;horizontalStack=0;rounded=1;fontSize=13;fontStyle=0;strokeWidth=2;resizeParent=0;resizeLast=1;shadow=0;dashed=0;align=center;" vertex="1" parent="1">
          <mxGeometry x="410" y="485" width="130" height="90" as="geometry" />
        </mxCell>
        <mxCell id="iLK9U__o5Sq51809CfXk-118" value="+Attribute1&#xa;+Attribute2&#xa;+Attribute3" style="align=left;strokeColor=none;fillColor=none;spacingLeft=4;fontSize=12;verticalAlign=top;resizable=0;rotatable=0;part=1;" vertex="1" parent="iLK9U__o5Sq51809CfXk-117">
          <mxGeometry y="30" width="130" height="60" as="geometry" />
        </mxCell>
        <mxCell id="iLK9U__o5Sq51809CfXk-122" value="&lt;font style=&quot;font-size: 10px&quot;&gt;Supervised_by&lt;/font&gt;" style="text;html=1;strokeColor=none;fillColor=none;align=center;verticalAlign=middle;whiteSpace=wrap;rounded=0;fontSize=13;" vertex="1" parent="1">
          <mxGeometry x="394" y="610" width="80" height="20" as="geometry" />
        </mxCell>
        <mxCell id="iLK9U__o5Sq51809CfXk-124" value="&lt;font style=&quot;font-size: 10px&quot;&gt;Supervised_by&lt;/font&gt;" style="text;html=1;strokeColor=none;fillColor=none;align=center;verticalAlign=middle;whiteSpace=wrap;rounded=0;fontSize=13;" vertex="1" parent="1">
          <mxGeometry x="353" y="426" width="80" height="20" as="geometry" />
        </mxCell>
        <mxCell id="iLK9U__o5Sq51809CfXk-125" style="edgeStyle=orthogonalEdgeStyle;rounded=0;orthogonalLoop=1;jettySize=auto;html=1;exitX=0.005;exitY=0.711;exitDx=0;exitDy=0;startArrow=none;startFill=0;endArrow=classic;endFill=1;fontSize=11;fontColor=#000000;exitPerimeter=0;entryX=0.689;entryY=-0.005;entryDx=0;entryDy=0;entryPerimeter=0;" edge="1" parent="1" source="iLK9U__o5Sq51809CfXk-46" target="iLK9U__o5Sq51809CfXk-117">
          <mxGeometry relative="1" as="geometry">
            <mxPoint x="548" y="510" as="targetPoint" />
            <Array as="points">
              <mxPoint x="500" y="343" />
            </Array>
          </mxGeometry>
        </mxCell>
        <mxCell id="iLK9U__o5Sq51809CfXk-127" value="&lt;span style=&quot;font-size: 10px&quot;&gt;Maintained by&lt;/span&gt;" style="text;html=1;strokeColor=none;fillColor=none;align=center;verticalAlign=middle;whiteSpace=wrap;rounded=0;fontSize=13;" vertex="1" parent="1">
          <mxGeometry x="510" y="350" width="80" height="20" as="geometry" />
        </mxCell>
        <mxCell id="iLK9U__o5Sq51809CfXk-129" style="edgeStyle=orthogonalEdgeStyle;rounded=0;orthogonalLoop=1;jettySize=auto;html=1;exitX=-0.003;exitY=0.119;exitDx=0;exitDy=0;startArrow=none;startFill=0;endArrow=classic;endFill=1;fontSize=11;fontColor=#000000;exitPerimeter=0;" edge="1" parent="1" source="iLK9U__o5Sq51809CfXk-38" target="iLK9U__o5Sq51809CfXk-118">
          <mxGeometry relative="1" as="geometry">
            <mxPoint x="540" y="605" as="targetPoint" />
            <Array as="points">
              <mxPoint x="690" y="729" />
              <mxPoint x="690" y="630" />
              <mxPoint x="530" y="630" />
            </Array>
          </mxGeometry>
        </mxCell>
        <mxCell id="iLK9U__o5Sq51809CfXk-130" value="&lt;span style=&quot;font-size: 10px&quot;&gt;Maintained by&lt;/span&gt;" style="text;html=1;strokeColor=none;fillColor=none;align=center;verticalAlign=middle;whiteSpace=wrap;rounded=0;fontSize=13;" vertex="1" parent="1">
          <mxGeometry x="590" y="631" width="80" height="20" as="geometry" />
        </mxCell>
        <mxCell id="iLK9U__o5Sq51809CfXk-132" value="" style="swimlane;childLayout=stackLayout;horizontal=1;startSize=30;horizontalStack=0;rounded=1;fontSize=13;fontStyle=0;strokeWidth=2;resizeParent=0;resizeLast=1;shadow=0;dashed=0;align=center;" vertex="1" parent="1">
          <mxGeometry x="1060" y="340" width="110" height="90" as="geometry" />
        </mxCell>
        <mxCell id="iLK9U__o5Sq51809CfXk-133" value="date_borrowed&#xa;date_to_be_returned" style="align=left;strokeColor=none;fillColor=none;spacingLeft=4;fontSize=9;verticalAlign=top;resizable=0;rotatable=0;part=1;" vertex="1" parent="iLK9U__o5Sq51809CfXk-132">
          <mxGeometry y="30" width="110" height="60" as="geometry" />
        </mxCell>
        <mxCell id="iLK9U__o5Sq51809CfXk-134" style="edgeStyle=orthogonalEdgeStyle;rounded=0;orthogonalLoop=1;jettySize=auto;html=1;startArrow=none;startFill=0;endArrow=none;endFill=0;fontSize=11;fontColor=#000000;dashed=1;" edge="1" parent="1">
          <mxGeometry relative="1" as="geometry">
            <mxPoint x="940" y="404" as="targetPoint" />
            <mxPoint x="1060" y="404" as="sourcePoint" />
            <Array as="points">
              <mxPoint x="1060" y="404" />
            </Array>
          </mxGeometry>
        </mxCell>
      </root>
    </mxGraphModel>
  </diagram>
</mxfile>
